<svg xmlns="http://www.w3.org/2000/svg" viewBox="0 0 180 320" role="img" aria-label="Industrial stacklight">
  <defs>
    <linearGradient id="cap" x1="0" y1="0" x2="0" y2="1">
      <stop offset="0%" stop-color="#5e6368"/>
      <stop offset="55%" stop-color="#2f3438"/>
      <stop offset="100%" stop-color="#14171a"/>
    </linearGradient>
    <linearGradient id="housing" x1="0" y1="0" x2="0" y2="1">
      <stop offset="0%" stop-color="#565d64"/>
      <stop offset="100%" stop-color="#20252a"/>
    </linearGradient>
    <linearGradient id="lensRed" x1="0" y1="0" x2="0" y2="1">
      <stop offset="0%" stop-color="#ff6b91"/>
      <stop offset="55%" stop-color="#d81e58"/>
      <stop offset="100%" stop-color="#6a0b28"/>
    </linearGradient>
    <linearGradient id="lensYellow" x1="0" y1="0" x2="0" y2="1">
      <stop offset="0%" stop-color="#ffba4f"/>
      <stop offset="55%" stop-color="#db7e13"/>
      <stop offset="100%" stop-color="#704008"/>
    </linearGradient>
    <linearGradient id="lensGreen" x1="0" y1="0" x2="0" y2="1">
      <stop offset="0%" stop-color="#45dc70"/>
      <stop offset="55%" stop-color="#149843"/>
      <stop offset="100%" stop-color="#0a4c22"/>
    </linearGradient>
    <radialGradient id="base" cx="50%" cy="35%" r="70%">
      <stop offset="0%" stop-color="#474c52"/>
      <stop offset="65%" stop-color="#1b1f23"/>
      <stop offset="100%" stop-color="#090b0d"/>
    </radialGradient>
  </defs>

  <ellipse cx="90" cy="292" rx="42" ry="17" fill="url(#base)"/>
  <ellipse cx="90" cy="292" rx="42" ry="17" fill="none" stroke="#596068" stroke-width="2"/>
  <circle cx="63" cy="292" r="3.2" fill="#727b84"/>
  <circle cx="117" cy="292" r="3.2" fill="#727b84"/>

  <rect x="84" y="226" width="12" height="56" rx="6" fill="#262a2f"/>
  <rect x="83" y="224" width="14" height="58" rx="7" fill="none" stroke="#666d74" stroke-width="1.2" opacity="0.6"/>

  <rect x="67" y="204" width="46" height="28" rx="7" fill="#1a1e22"/>
  <rect x="67" y="204" width="46" height="28" rx="7" fill="none" stroke="#6a7179" stroke-width="1.4" opacity="0.55"/>
  <text x="90" y="221" text-anchor="middle" font-size="6.8" font-family="Arial, sans-serif" fill="#f0f3f5" opacity="0.85">stacklight</text>

  <rect x="58" y="46" width="64" height="160" rx="20" fill="url(#housing)"/>
  <rect x="58" y="46" width="64" height="160" rx="20" fill="none" stroke="#6b737b" stroke-width="3"/>
  <ellipse cx="90" cy="39" rx="32" ry="12" fill="url(#cap)"/>
  <ellipse cx="90" cy="39" rx="32" ry="12" fill="none" stroke="#767f88" stroke-width="2"/>

  <g>
    <rect x="64" y="56" width="52" height="44" rx="10" fill="url(#lensRed)"/>
    <rect x="64" y="56" width="52" height="44" rx="10" fill="none" stroke="#88334b" stroke-width="1.6" opacity="0.7"/>
    <path d="M70 62 C84 54, 102 54, 110 66" fill="none" stroke="#ffd2df" stroke-width="4" opacity="0.35"/>
  </g>
  <g>
    <rect x="64" y="102" width="52" height="44" rx="10" fill="url(#lensYellow)"/>
    <rect x="64" y="102" width="52" height="44" rx="10" fill="none" stroke="#8c6022" stroke-width="1.6" opacity="0.7"/>
    <path d="M70 108 C84 100, 102 100, 110 112" fill="none" stroke="#ffe3b8" stroke-width="4" opacity="0.35"/>
  </g>
  <g>
    <rect x="64" y="148" width="52" height="44" rx="10" fill="url(#lensGreen)"/>
    <rect x="64" y="148" width="52" height="44" rx="10" fill="none" stroke="#2e7a49" stroke-width="1.6" opacity="0.7"/>
    <path d="M70 154 C84 146, 102 146, 110 158" fill="none" stroke="#cef7d8" stroke-width="4" opacity="0.35"/>
  </g>
</svg>
